<?xml version="1.0" encoding="iso-8859-1"?>
<!-- Uploaded to: SVG Repo, www.svgrepo.com, Generator: SVG Repo Mixer Tools -->
<svg version="1.1" id="Layer_1" xmlns="http://www.w3.org/2000/svg" xmlns:xlink="http://www.w3.org/1999/xlink" 
	 viewBox="0 0 510.208 510.208" xml:space="preserve">
<circle style="fill:#BE5C00;" cx="138.308" cy="378.604" r="116.604"/>
<path style="fill:#E6C017;" d="M39.405,440.415c4.591,7.331,10.073,14.264,16.451,20.641c6.378,6.378,13.309,11.86,20.641,16.451
	l54.295-54.295L93.7,386.12L39.405,440.415z"/>
<circle style="fill:none;stroke:#DD6B00;stroke-width:30;stroke-miterlimit:10;" cx="138.308" cy="378.604" r="116.604"/>
<path style="fill:#D8CDBD;" d="M498.574,61.912c6.293-6.293,6.293-16.496,0-22.789L466.394,6.944L157.168,316.17
	c-4.283,4.283-4.283,11.228,0,15.511l28.064,28.064c4.283,4.283,11.228,4.283,15.511,0L498.574,61.912z"/>
<path style="fill:#BEAB90;" d="M171.198,345.713l14.274,14.274c4.149,4.149,10.877,4.149,15.025,0L498.931,61.556
	c6.097-6.097,6.097-15.98,0-22.076l-10.749-10.749L171.198,345.713z"/>
<path style="fill:#BE5C00;" d="M439.684,120.803l-45.799-45.799c-6.293-6.293-6.293-16.496,0-22.789l47.496-47.496
	c6.293-6.293,16.496-6.293,22.789,0l34.404,34.403c6.293,6.293,6.293,16.496,0,22.789L439.684,120.803z"/>
<path style="fill:#3E3D41;" d="M132.581,448.006L68.905,384.33c-6.352-6.352-6.352-16.652,0-23.004s16.652-6.352,23.004,0
	l63.676,63.676c6.352,6.352,6.352,16.652,0,23.004C149.233,454.358,138.934,454.358,132.581,448.006z"/>
<rect x="377.341" y="94.985" transform="matrix(-0.7071 -0.7071 0.7071 -0.7071 619.8613 474.2649)" style="fill:#BEAB90;" width="61.626" height="27.541"/>
</svg>