<?xml version="1.0" encoding="iso-8859-1"?>
<!-- Uploaded to: SVG Repo, www.svgrepo.com, Generator: SVG Repo Mixer Tools -->
<svg height="800px" width="800px" version="1.1" id="Capa_1" xmlns="http://www.w3.org/2000/svg" xmlns:xlink="http://www.w3.org/1999/xlink" 
	 viewBox="0 0 512.002 512.002" xml:space="preserve">
<path style="fill:#F4C514;" d="M320.112,384.162c7.769-5.136,14.997-11.034,21.581-17.621c26.21-26.207,40.642-61.054,40.642-98.117
	c0-37.065-14.432-71.907-40.639-98.116s-61.053-40.642-98.119-40.641c-37.062,0-71.912,14.432-98.116,40.638
	c-6.583,6.582-12.482,13.81-17.622,21.583c-30.531,6.492-58.177,21.509-80.5,43.832c-63.118,63.119-63.118,165.82,0,228.938
	s165.82,63.12,228.941,0.002C298.61,442.334,313.623,414.687,320.112,384.162z"/>
<path style="fill:#E9D535;" d="M276.285,464.661c22.325-22.326,37.34-49.973,43.829-80.5c7.769-5.136,14.997-11.034,21.581-17.621
	c26.21-26.207,40.642-61.054,40.642-98.117c0-37.065-14.432-71.907-40.639-98.116L47.347,464.66
	C110.465,527.778,213.165,527.778,276.285,464.661z"/>
<g>
	<path style="fill:#5B699C;" d="M199.974,355.641l-43.609-43.607c-9.03-9.03-23.674-9.03-32.705,0
		c-9.032,9.032-9.032,23.675,0,32.707l43.609,43.607c9.03,9.03,23.674,9.03,32.705-0.002
		C209.004,379.314,209.004,364.671,199.974,355.641z"/>
	<path style="fill:#5B699C;" d="M287.574,262.978c0-10.296-4.005-19.973-11.289-27.261c-7.282-7.279-16.959-11.286-27.252-11.286
		c-10.302-0.002-19.98,4.012-27.255,11.289c-15.029,15.029-15.029,39.48,0,54.509c0,0,0,0.002,0.003,0.003
		c7.282,7.279,16.956,11.286,27.252,11.286c10.296-0.002,19.973-4.012,27.246-11.286
		C283.559,282.955,287.574,273.276,287.574,262.978z"/>
</g>
<path style="fill:#DD9520;" d="M407.107,137.601c9.03-9.032,9.03-23.672,0-32.704c-9.033-9.033-23.674-9.033-32.708,0
	l-65.411,65.414c-9.03,9.03-9.027,23.672,0.003,32.704c9.03,9.033,23.674,9.032,32.705,0L407.107,137.601z"/>
<g>
	<path style="fill:#9E8CEC;" d="M385.301,39.49c-4.306-4.306-6.778-10.268-6.77-16.363c0.003-6.082,2.474-12.046,6.77-16.343
		c4.309-4.306,10.274-6.781,16.353-6.781c6.085,0,12.047,2.475,16.353,6.781s6.77,10.259,6.781,16.352
		c0,6.082-2.475,12.047-6.781,16.352c-4.297,4.297-10.259,6.77-16.343,6.77C395.56,46.261,389.61,43.796,385.301,39.49z"/>
	<path style="fill:#9E8CEC;" d="M341.695,83.097c-4.306-4.306-6.781-10.268-6.77-16.363c0-6.084,2.471-12.047,6.77-16.343
		c4.306-4.308,10.271-6.779,16.353-6.781c6.082,0.002,12.046,2.473,16.35,6.781c4.306,4.308,6.781,10.271,6.784,16.353
		c-0.015,6.095-2.478,12.046-6.784,16.353c-4.294,4.294-10.256,6.77-16.34,6.77C351.954,89.868,346,87.405,341.695,83.097z"/>
</g>
<g>
	<path style="fill:#6A56CF;" d="M428.909,170.314c-4.306-4.308-6.781-10.27-6.77-16.364c0-6.084,2.473-12.046,6.77-16.343
		c4.306-4.308,10.259-6.77,16.355-6.779c6.082,0,12.046,2.473,16.35,6.779c4.306,4.306,6.773,10.257,6.781,16.352
		c0,6.082-2.475,12.046-6.781,16.353c-4.294,4.294-10.256,6.77-16.343,6.77C439.168,177.082,433.206,174.608,428.909,170.314z"/>
	<path style="fill:#6A56CF;" d="M472.518,126.704c-4.309-4.306-6.77-10.28-6.77-16.363c0-6.082,2.471-12.046,6.767-16.343
		c4.309-4.306,10.271-6.781,16.356-6.781c6.082,0,12.046,2.475,16.35,6.781c4.306,4.306,6.77,10.259,6.781,16.353
		c0,6.082-2.475,12.046-6.781,16.352c-4.306,4.306-10.259,6.77-16.343,6.77C482.786,133.465,476.824,131.01,472.518,126.704z"/>
</g>
<path style="fill:#AF6D00;" d="M407.107,137.601c9.03-9.03,9.03-23.672,0-32.704l-98.116,98.117c9.03,9.033,23.674,9.032,32.705,0
	L407.107,137.601z"/>
<path style="fill:#F4C514;" d="M505.226,72.192L439.813,6.778c-4.339-4.337-10.22-6.774-16.353-6.773
	c-6.133,0-12.015,2.436-16.35,6.773L341.7,72.192c-9.033,9.03-9.03,23.675,0,32.705l65.41,65.412c9.033,9.032,23.674,9.032,32.705,0
	l65.414-65.412C514.256,95.866,514.256,81.222,505.226,72.192z"/>
<g>
	<path style="fill:#2D4175;" d="M167.269,388.346c9.03,9.03,23.674,9.03,32.705-0.002c9.03-9.03,9.03-23.674,0-32.705
		l-21.805-21.805l-32.705,32.707L167.269,388.346z"/>
	<path style="fill:#2D4175;" d="M221.781,290.233c7.282,7.279,16.956,11.286,27.252,11.286c10.296-0.002,19.973-4.012,27.246-11.286
		c7.282-7.279,11.295-16.958,11.295-27.255c0-10.294-4.005-19.972-11.286-27.258l-54.509,54.509
		C221.778,290.23,221.778,290.232,221.781,290.233z"/>
</g>
<path style="fill:#E9D535;" d="M505.226,72.192l-32.708-32.705l-98.116,98.116l32.705,32.707c9.033,9.032,23.674,9.032,32.705,0
	l65.414-65.412C514.256,95.866,514.256,81.222,505.226,72.192z"/>
</svg>