<?xml version="1.0" encoding="iso-8859-1"?>
<!-- Uploaded to: SVG Repo, www.svgrepo.com, Generator: SVG Repo Mixer Tools -->
<svg height="800px" width="800px" version="1.1" id="Capa_1" xmlns="http://www.w3.org/2000/svg" xmlns:xlink="http://www.w3.org/1999/xlink" 
	 viewBox="0 0 512 512" xml:space="preserve">
<g>
	<path style="fill:var(--chakra-colors-cobalt-300);" d="M23.286,46.571l465.429-0.028c12.852-0.002,23.27-10.421,23.27-23.273
		c0-12.85-10.421-23.271-23.273-23.27L23.283,0.028C10.431,0.029,0.013,10.447,0.013,23.301
		C0.013,36.153,10.434,46.572,23.286,46.571z"/>
	<path style="fill:var(--chakra-colors-cobalt-300);" d="M488.712,93.086L23.283,93.114c-12.852,0.002-23.27,10.419-23.27,23.273
		c0,12.852,10.421,23.271,23.273,23.27l465.429-0.028c12.852-0.002,23.27-10.421,23.27-23.273
		C511.985,103.505,501.564,93.084,488.712,93.086z"/>
	<path style="fill:var(--chakra-colors-cobalt-300);" d="M488.712,186.172L23.283,186.2c-12.852,0.002-23.27,10.421-23.27,23.273
		c0,12.852,10.421,23.271,23.273,23.27l465.429-0.028c12.852,0,23.27-10.421,23.27-23.273
		C511.985,196.59,501.564,186.172,488.712,186.172z"/>
	<path style="fill:var(--chakra-colors-cobalt-300);" d="M488.712,279.257l-465.429,0.028c-12.852,0.002-23.27,10.421-23.27,23.273
		c0,12.852,10.421,23.271,23.273,23.27l465.429-0.028c12.852,0,23.27-10.421,23.27-23.273
		C511.985,289.675,501.564,279.257,488.712,279.257z"/>
	<path style="fill:var(--chakra-colors-cobalt-300);" d="M488.712,372.343l-465.429,0.028c-12.852,0-23.27,10.421-23.27,23.273s10.421,23.27,23.273,23.27
		l465.429-0.028c12.852,0,23.27-10.421,23.27-23.273C511.985,382.761,501.564,372.343,488.712,372.343z"/>
	<path style="fill:var(--chakra-colors-cobalt-300);" d="M488.712,465.429l-465.429,0.028c-12.852,0-23.27,10.421-23.27,23.273
		c0,12.852,10.421,23.27,23.273,23.27l465.429-0.028c12.852,0,23.27-10.421,23.27-23.273S501.564,465.429,488.712,465.429z"/>
</g>
<g>
	<path style="fill:var(--chakra-colors-cobalt-400);" d="M511.985,23.27c0-12.85-10.421-23.271-23.273-23.27L255.999,0.014v46.543l232.716-0.014
		C501.567,46.541,511.985,36.122,511.985,23.27z"/>
	<path style="fill:var(--chakra-colors-cobalt-400);" d="M511.985,116.356c0-12.85-10.421-23.271-23.273-23.27L255.999,93.1v46.543l232.716-0.014
		C501.567,139.627,511.985,129.208,511.985,116.356z"/>
	<path style="fill:var(--chakra-colors-cobalt-400);" d="M488.715,232.715c12.852,0,23.27-10.421,23.27-23.273c0-12.852-10.421-23.27-23.273-23.27
		l-232.713,0.012v46.543L488.715,232.715z"/>
	<path style="fill:var(--chakra-colors-cobalt-400);" d="M488.715,325.8c12.852,0,23.27-10.421,23.27-23.273c0-12.852-10.421-23.27-23.273-23.27
		l-232.713,0.013v46.543L488.715,325.8z"/>
	<path style="fill:var(--chakra-colors-cobalt-400);" d="M488.715,418.886c12.852,0,23.27-10.421,23.27-23.273c0-12.852-10.421-23.27-23.273-23.27
		l-232.713,0.013v46.543L488.715,418.886z"/>
	<path style="fill:var(--chakra-colors-cobalt-400);" d="M488.715,511.972c12.852,0,23.27-10.421,23.27-23.273s-10.421-23.27-23.273-23.27l-232.713,0.013
		v46.543L488.715,511.972z"/>
</g>
<g>
	<path style="fill:var(--chakra-colors-gold-500);" d="M116.37,139.643c-12.852,0-23.271,10.418-23.271,23.27v166.918
		c-7.282-2.583-15.111-4.003-23.268-4.003c-38.497,0-69.817,31.32-69.817,69.814s31.32,69.814,69.817,69.814
		c38.494,0,69.811-31.32,69.811-69.814v-232.73C139.642,150.061,129.222,139.643,116.37,139.643z"/>
	<path style="fill:var(--chakra-colors-cobalt-400);" d="M302.542,46.543c-12.852,0-23.271,10.419-23.271,23.271v166.931
		c-7.282-2.583-15.111-4.003-23.268-4.003c-38.497,0-69.817,31.32-69.817,69.814s31.32,69.814,69.817,69.814
		c38.493,0,69.811-31.32,69.811-69.814V69.814C325.813,56.962,315.394,46.543,302.542,46.543z"/>
</g>
<g>
	<path style="fill:var(--chakra-colors-cobalt-500);" d="M488.714,139.629c-12.852,0-23.271,10.419-23.271,23.271v166.931
		c-7.282-2.583-15.111-4.003-23.268-4.003c-38.499,0-69.817,31.32-69.817,69.814s31.319,69.814,69.817,69.814
		c38.493,0,69.811-31.32,69.811-69.814V162.9C511.985,150.048,501.566,139.629,488.714,139.629z"/>
	<path style="fill:var(--chakra-colors-cobalt-500);" d="M302.542,46.543c-12.852,0-23.271,10.419-23.271,23.271v166.931
		c-7.282-2.583-15.111-4.003-23.268-4.003h-0.004v139.629h0.003c38.493,0,69.811-31.32,69.811-69.814V69.814
		C325.813,56.962,315.394,46.543,302.542,46.543z"/>
</g>
</svg>