<?xml version="1.0" encoding="iso-8859-1"?>
<!-- Uploaded to: SVG Repo, www.svgrepo.com, Generator: SVG Repo Mixer Tools -->
<svg version="1.1" id="Capa_1" xmlns="http://www.w3.org/2000/svg" xmlns:xlink="http://www.w3.org/1999/xlink" 
	 viewBox="0 0 512 512" xml:space="preserve">
<path style="fill:var(--chakra-colors-gold-500);" d="M256,393.846c-32.576,0-59.077,26.501-59.077,59.077S223.424,512,256,512
	s59.077-26.501,59.077-59.077S288.576,393.846,256,393.846z"/>
<rect x="59.08" y="321.64" style="fill:var(--chakra-colors-cobalt-300);" width="393.85" height="91.9"/>
<rect x="250.24" y="321.64" style="fill:var(--chakra-colors-cobalt-400);" width="202.69" height="91.9"/>
<path style="fill:var(--chakra-colors-cobalt-400);" d="M354.462,164.103h-32.821c-25.336,0-45.949-20.611-45.949-45.949C275.692,53.004,222.689,0,157.538,0
	S39.385,53.004,39.385,118.154v203.487v91.897c0,10.875,8.817,19.692,19.692,19.692h393.846c10.874,0,19.692-8.817,19.692-19.692
	v-91.897v-39.385C472.615,217.106,419.612,164.103,354.462,164.103z M196.923,341.333v52.513h-39.385v-52.513H196.923z
	 M236.308,341.333h39.385v52.513h-39.385V341.333z M315.077,341.333h39.385v52.513h-39.385V341.333z M78.769,341.333h39.385v52.513
	H78.769V341.333z M433.231,393.846h-39.385v-52.513h39.385V393.846z"/>
<path style="fill:var(--chakra-colors-gold-600);" d="M256,393.846c-1.943,0-3.864,0.101-5.761,0.285v117.584c1.896,0.184,3.816,0.285,5.761,0.285
	c32.576,0,59.077-26.501,59.077-59.077S288.576,393.846,256,393.846z"/>
<path style="fill:var(--chakra-colors-cobalt-500);" d="M354.462,164.103h-32.821c-25.336,0-45.949-20.611-45.949-45.949
	c0-27.611-9.523-53.037-25.453-73.175v296.355h25.453v52.513h-25.453v39.385h202.684c10.874,0,19.692-8.817,19.692-19.692v-91.897
	v-39.385C472.615,217.106,419.612,164.103,354.462,164.103z M354.462,393.846h-39.385v-52.513h39.385V393.846z M433.231,393.846
	h-39.385v-52.513h39.385V393.846z"/>
</svg>