<?xml version="1.0" encoding="iso-8859-1"?>
<!-- Uploaded to: SVG Repo, www.svgrepo.com, Generator: SVG Repo Mixer Tools -->
<svg height="800px" width="800px" version="1.1" id="Capa_1" xmlns="http://www.w3.org/2000/svg" xmlns:xlink="http://www.w3.org/1999/xlink" 
	 viewBox="0 0 511.999 511.999" xml:space="preserve">
<path style="fill:#9E8CEC;" d="M298.189,335.693l123.601-123.6c7.766-7.769,7.766-20.361,0-28.13c-7.767-7.766-20.36-7.766-28.127,0
	l-123.6,123.601c-18.095,18.094-47.539,18.094-65.632,0.003c-18.094-18.094-18.094-47.538,0-65.63l123.601-123.598
	c7.766-7.767,7.766-20.36-0.001-28.129c-7.766-7.765-20.36-7.766-28.127,0l-123.601,123.6
	c-28.761,28.762-32.881,72.954-12.407,106.163L5.825,478.044c-7.766,7.769-7.766,20.363,0,28.129c7.766,7.767,20.36,7.767,28.129,0
	l158.069-158.071C225.233,368.575,269.424,364.456,298.189,335.693z"/>
<path style="fill:#F4C514;" d="M129.993,175.733c-7.766-7.766-7.766-20.36,0-28.127L243.648,33.952
	c7.766-7.767,20.36-7.767,28.129-0.001c7.766,7.767,7.766,20.361-0.001,28.127L158.12,175.733
	C150.353,183.502,137.76,183.503,129.993,175.733z"/>
<g>
	<path style="fill:#E9D535;" d="M336.263,382.001c-7.766-7.766-7.766-20.36,0-28.127L449.917,240.22
		c7.766-7.769,20.36-7.767,28.127,0c7.767,7.766,7.767,20.36,0,28.126L364.391,382.001
		C356.624,389.767,344.031,389.767,336.263,382.001z"/>
	<path style="fill:#E9D535;" d="M420.647,410.129L420.647,410.129c-7.767-7.766-7.766-20.36,0-28.127l57.4-57.396
		c7.766-7.766,20.36-7.765,28.126,0l0,0c7.769,7.769,7.766,20.361,0,28.129l-57.399,57.396
		C441.008,417.897,428.415,417.895,420.647,410.129z"/>
</g>
<path style="fill:#F4C514;" d="M101.868,91.35c-7.766-7.767-7.767-20.36,0-28.127l57.398-57.398c7.766-7.767,20.359-7.767,28.127,0
	c7.766,7.766,7.767,20.36,0,28.127L129.995,91.35C122.229,99.116,109.634,99.116,101.868,91.35z"/>
<path style="fill:#6A56CF;" d="M298.189,335.693l123.601-123.6c7.766-7.769,7.766-20.361,0-28.13c-7.767-7.766-20.36-7.766-28.127,0
	l-123.6,123.601c-18.095,18.094-47.539,18.094-65.632,0.003L5.825,506.171c0,0,0,0,0,0.001c7.766,7.767,20.36,7.767,28.129,0
	l158.069-158.071C225.233,368.575,269.424,364.456,298.189,335.693z"/>
</svg>