<?xml version="1.0" encoding="iso-8859-1"?>
<!-- Uploaded to: SVG Repo, www.svgrepo.com, Generator: SVG Repo Mixer Tools -->
<svg height="800px" width="800px" version="1.1" id="Layer_1" xmlns="http://www.w3.org/2000/svg" xmlns:xlink="http://www.w3.org/1999/xlink" 
	 viewBox="0 0 512 512" xml:space="preserve">
<path style="fill:#3E3D41;" d="M512,405.485c0,5.263-2.498,10.213-6.733,13.338c-4.235,3.125-9.701,4.056-14.73,2.505
	L11.696,273.726C4.742,271.583,0,265.158,0,257.883v-86.772c0-9.156,7.422-16.579,16.579-16.579h478.842
	c9.156,0,16.579,7.422,16.579,16.579V405.485z"/>
<path style="fill:#313033;" d="M0,252.709v5.175c0,7.275,4.742,13.7,11.696,15.843L490.537,421.33
	c5.029,1.55,10.495,0.62,14.73-2.505c4.235-3.125,6.733-8.076,6.733-13.338V252.709H0z"/>
<path style="fill:#FAD52D;" d="M180.534,409.781c0,6.014-4.875,10.889-10.889,10.889H99.463c-6.014,0-10.889-4.875-10.889-10.889
	V100.823c0-6.014,4.875-10.889,10.889-10.889h70.181c6.014,0,10.889,4.875,10.889,10.889v308.958H180.534z"/>
<path style="fill:#D97E00;" d="M301.68,409.781c0,6.014-4.875,10.889-10.889,10.889H220.61c-6.014,0-10.889-4.875-10.889-10.889
	V100.823c0-6.014,4.875-10.889,10.889-10.889h70.181c6.014,0,10.889,4.875,10.889,10.889V409.781z"/>
<path style="fill:#2F6EAF;" d="M427.272,409.781c0,6.014-4.875,10.889-10.889,10.889h-70.181c-6.014,0-10.889-4.875-10.889-10.889
	V100.823c0-6.014,4.875-10.889,10.889-10.889h70.181c6.014,0,10.889,4.875,10.889,10.889V409.781z"/>
<path style="fill:#E6C017;" d="M169.645,89.934h-36.203V420.67h36.203c6.014,0,10.889-4.875,10.889-10.889V100.823
	C180.534,94.809,175.658,89.934,169.645,89.934z"/>
<g>
	<circle style="fill:#313033;" cx="133.439" cy="179.185" r="12.846"/>
	<circle style="fill:#313033;" cx="133.439" cy="344.477" r="12.846"/>
</g>
<path style="fill:#BF6F00;" d="M290.791,89.934h-36.203V420.67h36.203c6.014,0,10.889-4.875,10.889-10.889V100.823
	C301.68,94.809,296.805,89.934,290.791,89.934z"/>
<g>
	<circle style="fill:#313033;" cx="254.585" cy="179.185" r="12.846"/>
	<circle style="fill:#313033;" cx="254.585" cy="344.477" r="12.846"/>
</g>
<path style="fill:#296099;" d="M416.382,89.934H380.18V420.67h36.203c6.014,0,10.889-4.875,10.889-10.889V100.823
	C427.272,94.809,422.396,89.934,416.382,89.934z"/>
<g>
	<circle style="fill:#313033;" cx="380.176" cy="179.185" r="12.846"/>
	<circle style="fill:#313033;" cx="380.176" cy="344.477" r="12.846"/>
</g>
</svg>